P2
16 16
21
0 0 0 0 0 0 0 0 0 0 0 0 0 0 0 0
0 2 2 1 4 4 1 6 6 1 8 8 1 10 10 0
0 2 2 1 4 4 1 6 6 1 8 8 1 10 10 0
0 2 2 1 4 4 1 6 6 1 8 8 1 10 10 0
0 2 2 1 4 4 1 6 6 1 8 8 1 10 10 0
0 2 2 1 4 4 1 6 6 1 8 8 1 10 10 0
0 2 2 1 4 4 1 6 6 1 8 8 1 10 10 0
0 0 0 0 0 0 0 0 0 0 0 0 0 0 0 0
0 0 0 0 0 0 0 0 0 0 0 0 0 0 0 0
0 12 12 1 14 14 1 16 16 1 18 18 1 20 20 0
0 12 12 1 14 14 1 16 16 1 18 18 1 20 20 0
0 12 12 1 14 14 1 16 16 1 18 18 1 20 20 0
0 12 12 1 14 14 1 16 16 1 18 18 1 20 20 0
0 12 12 1 14 14 1 16 16 1 18 18 1 20 20 0
0 12 12 1 14 14 1 16 16 1 18 18 1 20 20 0
0 0 0 0 0 0 0 0 0 0 0 0 0 0 0 0
