P2
16 16
5
1 0 0 4 0 0 4 0 0 4 0 0 4 0 0 1
0 3 3 3 3 3 3 3 3 3 3 3 3 3 3 0
0 3 2 2 2 2 2 2 2 2 2 2 2 2 3 0
4 3 2 3 3 3 3 3 3 3 3 3 3 2 3 4
0 3 2 3 2 2 2 2 2 2 2 2 3 2 3 0
0 3 2 3 2 3 3 3 3 3 3 2 3 2 3 0
4 3 2 3 2 3 2 2 2 2 3 2 3 2 3 4
0 3 2 3 2 3 2 3 3 2 3 2 3 2 3 0
0 3 2 3 2 3 2 3 3 2 3 2 3 2 3 0
4 3 2 3 2 3 2 2 2 2 3 2 3 2 3 4
0 3 2 3 2 3 3 3 3 3 3 2 3 2 3 0
0 3 2 3 2 2 2 2 2 2 2 2 3 2 3 0
4 3 2 3 3 3 3 3 3 3 3 3 3 2 3 4
0 3 2 2 2 2 2 2 2 2 2 2 2 2 3 0
0 3 3 3 3 3 3 3 3 3 3 3 3 3 3 0
1 0 0 4 0 0 4 0 0 4 0 0 4 0 0 1
