P2
16 16
9
9 9 9 9 9 9 9 9 9 9 9 9 9 9 9 9
9 3 3 3 3 3 3 3 3 3 3 3 3 3 3 9
9 3 3 3 3 3 3 3 3 3 3 3 3 3 3 9
9 3 3 9 9 3 3 3 3 3 3 3 3 3 3 9
9 3 3 9 9 3 3 3 3 3 3 3 3 3 3 9
9 3 3 3 3 3 3 3 3 3 3 3 3 3 3 9
9 3 3 3 3 3 3 3 3 3 3 3 3 3 3 9
9 3 3 3 3 3 3 3 3 3 3 3 3 3 3 9
9 3 3 3 3 3 3 3 3 3 3 3 3 3 3 9
9 3 3 3 3 3 3 3 3 3 3 3 3 3 3 9
9 3 3 3 3 3 3 3 3 3 3 3 3 3 3 9
9 3 3 3 3 3 3 3 3 3 3 9 9 3 3 9
9 3 3 3 3 3 3 3 3 3 3 9 9 3 3 9
9 3 3 3 3 3 3 3 3 3 3 3 3 3 3 9
9 3 3 3 3 3 3 3 3 3 3 3 3 3 3 9
9 9 9 9 9 9 9 9 9 9 9 9 9 9 9 9
