P3
2 1
255
230 214 207 204 190 184
