P3
2 1
255
77 71 65 64 59 54
