P3
2 1
255
82 153 46 68 128 38
