P3
2 1
255
168 230 138 150 204 122
