P3
2 1
255
152 152 217 134 134 191
