P3
2 1
255
188 43 217 166 38 191
