P3
2 1
255
230 11 11 179 9 9
