P3
2 1
255
75 102 20 65 89 18
