P3
2 1
255
140 133 126 128 121 115
