P3
2 1
255
179 126 89 153 108 77
