P3
2 1
255
43 217 72 38 191 63
