P3
2 1
255
230 218 184 204 194 163
