P3
2 1
255
230 230 230 102 102 102
