P3
2 1
255
64 49 35 51 40 28
