P3
2 1
255
230 207 161 204 184 143
