P3
2 1
255
36 89 36 31 77 31
