P3
2 1
255
53 38 128 42 31 102
