P3
2 1
255
115 88 34 64 49 19
