P3
2 1
255
242 234 218 191 124 57
