P3
2 1
255
51 128 13 36 89 9
