P3
2 1
255
204 194 184 191 182 172
