P3
2 1
255
194 194 242 173 173 217
