P3
2 1
255
217 184 119 191 163 105
