P3
2 1
255
30 89 18 25 77 15
