P3
2 1
255
102 79 56 89 69 49
