P3
2 1
255
207 230 222 184 204 197
