P3
2 1
255
143 204 20 125 179 18
