P3
2 1
255
167 167 167 153 153 153
