P3
2 1
255
128 38 38 102 31 31
