P3
2 1
255
51 51 51 38 38 38
