P3
2 1
255
77 166 255 69 149 230
