P3
2 1
255
179 89 179 153 77 153
