P3
2 1
255
77 51 102 67 45 89
