P3
2 1
255
102 77 51 89 67 45
