P3
2 1
255
255 77 255 230 69 230
