P3
2 1
255
0 102 102 0 89 89
