P3
2 1
255
179 134 89 153 115 77
