P3
2 1
255
255 77 77 230 69 69
