P3
2 1
255
134 89 179 115 77 153
