P3
2 1
255
179 89 89 153 77 77
