P3
2 1
255
89 179 179 77 153 153
