P3
2 1
255
51 77 102 45 67 89
