P3
2 1
255
140 140 140 115 115 115
