P3
2 1
255
128 128 255 115 115 230
