P3
2 1
255
51 102 0 45 89 0
