P3
2 1
255
191 191 191 166 166 166
