P3
2 1
255
255 0 128 230 0 115
