P3
2 1
255
0 102 0 0 89 0
