P3
2 1
255
64 32 48 51 26 38
