P3
2 1
255
102 51 51 89 45 45
