P3
2 1
255
102 102 0 89 89 0
