P3
2 1
255
32 48 64 26 38 51
