P3
2 1
255
48 32 64 38 26 51
