P3
2 1
255
128 255 191 115 230 172
