P3
2 1
255
255 191 128 230 172 115
