P3
2 1
255
89 179 89 77 153 77
