P3
2 1
255
51 51 102 45 45 89
