P3
2 1
255
51 102 102 45 89 89
