P3
2 1
255
255 128 191 230 115 172
