P3
2 1
255
217 179 255 195 161 230
