P3
2 1
255
0 0 179 0 0 153
