P3
2 1
255
255 128 0 230 115 0
