P3
2 1
255
179 0 179 153 0 153
