P3
2 1
255
77 102 51 67 89 45
