P3
2 1
255
255 255 255 230 230 230
