P3
2 1
255
166 255 77 149 230 69
