P3
2 1
255
255 128 128 230 115 115
