P3
2 1
255
64 64 32 51 51 26
