P3
2 1
255
179 0 89 153 0 77
