P3
2 1
255
255 255 128 230 230 115
