P3
2 1
255
179 255 255 161 230 230
