P3
2 1
255
128 0 255 115 0 230
