P3
2 1
255
166 77 255 149 69 230
