P3
2 1
255
32 64 32 26 51 26
