P3
2 1
255
64 32 32 51 26 26
