P3
2 1
255
255 217 179 230 195 161
