P3
2 1
255
77 77 255 69 69 230
