P3
2 1
255
89 0 179 77 0 153
