P3
2 1
255
255 128 255 230 115 230
