P3
2 1
255
77 255 77 69 230 69
