P3
2 1
255
64 48 32 51 38 26
