P3
2 1
255
255 77 166 230 69 149
