P3
2 1
255
179 255 179 161 230 161
