P3
2 1
255
102 51 0 89 45 0
