P3
2 1
255
255 179 179 230 161 161
