P3
2 1
255
77 255 166 69 230 149
