P3
2 1
255
191 255 128 172 230 115
