P3
2 1
255
255 179 255 230 161 230
