P3
2 1
255
77 255 255 69 230 230
