P3
2 1
255
0 89 179 0 77 153
