P3
2 1
255
102 102 51 89 89 45
