P3
2 1
255
89 179 134 77 153 115
