P3
2 1
255
89 89 179 77 77 153
