P3
2 1
255
0 128 255 0 115 230
