P3
2 1
255
255 0 0 230 0 0
