P3
2 1
255
0 179 89 0 153 77
