P3
2 1
255
0 51 102 0 45 89
