P3
2 1
255
32 64 48 26 51 38
