P3
2 1
255
77 77 77 64 64 64
