P3
2 1
255
179 179 89 153 153 77
