P3
2 1
255
242 242 242 230 230 230
