P3
2 1
255
20 204 20 18 179 18
