P3
2 1
255
242 204 12 217 182 11
