P3
2 1
255
230 199 138 217 188 130
