P3
2 1
255
217 188 130 204 177 122
