P3
2 1
255
204 177 122 191 166 115
