P3
2 1
255
242 242 97 217 217 87
