P3
2 1
255
64 51 38 51 41 31
