P3
2 1
255
77 61 46 64 51 38
