P3
2 1
255
153 122 91 128 102 76
