P3
2 1
255
204 170 102 179 149 89
