P3
2 1
255
128 94 25 102 75 20
