P3
2 1
255
92 153 61 77 128 51
