P3
2 1
255
19 64 27 15 51 21
