P3
2 1
255
23 77 32 19 64 27
