P3
2 1
255
15 51 21 11 38 16
