P3
2 1
255
255 191 0 230 57 0
