P3
2 1
255
65 90 217 57 80 191
