P3
2 1
255
230 207 92 204 184 82
