P3
2 1
255
217 236 255 206 224 242
