P3
2 1
255
66 77 15 55 64 13
