P3
2 1
255
77 31 15 64 25 13
