P3
2 1
255
25 77 15 21 64 13
