P3
2 1
255
153 15 15 128 13 13
