P3
2 1
255
153 153 61 128 128 51
