P3
2 1
255
230 230 230 204 204 204
