P3
2 1
255
140 140 140 128 128 128
