P3
2 1
255
204 187 163 179 164 143
