P3
2 1
255
163 204 82 143 179 72
