P3
2 1
255
230 230 46 204 204 41
