P3
2 1
255
242 242 73 217 217 65
