P3
2 1
255
53 53 179 45 45 153
