P3
2 1
255
101 128 51 81 102 41
