P3
2 1
255
89 89 89 74 89 45
