P3
2 1
255
102 71 61 89 62 54
