P3
2 1
255
51 41 36 38 31 27
