P3
2 1
255
41 64 19 33 51 15
