P3
2 1
255
20 22 26 10 11 13
