P3
2 1
255
230 23 23 204 20 20
