P3
2 1
255
77 51 15 64 43 13
