P3
2 1
255
77 69 61 64 57 51
