P3
2 1
255
242 212 170 217 190 152
