P3
2 1
255
230 138 138 204 122 122
