P3
2 1
255
204 102 102 179 89 89
