P3
2 1
255
22 195 230 20 173 204
