P3
2 1
255
217 11 11 191 10 10
