P3
2 1
255
166 146 108 140 124 91
