P3
2 1
255
64 128 74 51 102 59
