P3
2 1
255
230 34 34 204 31 31
