P3
2 1
255
204 196 153 191 183 143
