P3
2 1
255
43 72 217 38 64 191
