P3
2 1
255
107 153 61 89 128 51
