P3
2 1
255
83 89 18 71 77 15
