P3
2 1
255
191 112 96 166 97 83
