P3
2 1
255
184 197 204 161 173 179
