P3
2 1
255
217 213 195 204 201 184
