P3
2 1
255
179 179 179 153 153 153
