P3
2 1
255
242 249 255 230 236 242
