P3
2 1
255
102 72 51 89 63 45
