P3
2 1
255
20 51 31 15 38 23
