P3
2 1
255
242 242 242 217 217 217
