P3
2 1
255
89 89 89 77 77 77
