P3
2 1
255
242 226 48 217 202 43
