P3
2 1
255
242 166 12 217 148 11
