P3
2 1
255
49 46 51 37 34 38
