P3
2 1
255
134 191 77 116 166 66
