P3
2 1
255
242 242 255 218 218 230
