P3
2 1
255
158 179 54 135 153 46
