P3
2 1
255
204 190 122 179 167 107
