P3
2 1
255
217 193 76 191 171 67
