P3
2 1
255
191 163 77 166 141 66
