P3
2 1
255
15 77 15 13 64 13
