P3
2 1
255
128 106 64 102 85 51
